<svg width="16" height="16" viewBox="0 0 16 16" fill="none" xmlns="http://www.w3.org/2000/svg">
<path d="M14.8158 5.04844L11.1025 4.4874C10.9804 4.4619 10.8827 4.38539 10.8338 4.28338L9.17261 0.764113C8.95274 0.279576 8.48859 -0.000946045 7.97557 -0.000946045C7.46255 -0.000946045 6.9984 0.305078 6.77853 0.764113L5.11734 4.28338C5.06848 4.38539 4.97076 4.4619 4.84862 4.4874L1.13536 5.04844C0.622342 5.12495 0.207044 5.48198 0.060468 5.99201C-0.086108 6.50205 0.0360381 7.0631 0.402478 7.42012L3.0897 10.1743C3.16299 10.2508 3.21185 10.3784 3.18742 10.5059L2.55226 14.3822C2.47897 14.9177 2.67441 15.4277 3.0897 15.7338C3.505 16.0398 4.04245 16.0908 4.50661 15.8358L7.82899 13.9996C7.92671 13.9486 8.04886 13.9486 8.17101 13.9996L11.4934 15.8358C11.6888 15.9378 11.9087 15.9888 12.1286 15.9888C12.3973 15.9888 12.666 15.9123 12.9103 15.7083C13.3256 15.4022 13.521 14.8667 13.4477 14.3567L12.8126 10.4804C12.7881 10.3528 12.837 10.2253 12.9103 10.1488L15.5975 7.39462C15.964 7.01209 16.0861 6.47655 15.9395 5.96651C15.793 5.45647 15.3044 5.12495 14.8158 5.04844ZM14.8646 6.70607L12.1774 9.46028C11.8598 9.79181 11.7133 10.2508 11.7865 10.6844L12.4217 14.5607C12.4461 14.7647 12.324 14.8922 12.2751 14.9177C12.2263 14.9432 12.0797 15.0452 11.8843 14.9432L8.56187 13.1071C8.36644 13.0051 8.14658 12.954 7.95114 12.954C7.75571 12.954 7.51141 13.0051 7.34041 13.1071L4.01802 14.9432C3.84701 15.0452 3.70044 14.9687 3.65158 14.9177C3.60272 14.8667 3.48057 14.7647 3.505 14.5607L4.14017 10.6844C4.21345 10.2253 4.06688 9.7663 3.7493 9.46028L1.06207 6.70607C0.915494 6.55306 0.939924 6.40005 0.964353 6.32354C0.988783 6.24703 1.06207 6.09402 1.2575 6.06852L4.97076 5.50748C5.41049 5.43097 5.77693 5.15045 5.97237 4.74242L7.63356 1.22315C7.73128 1.04463 7.87785 1.01913 7.95114 1.01913C8.02443 1.01913 8.17101 1.04463 8.26872 1.22315L9.92992 4.74242C10.1254 5.15045 10.4918 5.43097 10.9315 5.50748L14.6448 6.06852C14.8402 6.09402 14.9135 6.24703 14.9379 6.32354C14.9868 6.37454 15.0112 6.55306 14.8646 6.70607Z" fill="#212121"/>
</svg>
