<svg width="18" height="19" viewBox="0 0 18 19" fill="none" xmlns="http://www.w3.org/2000/svg">
<g clip-path="url(#clip0_1_1034)">
<path d="M2.9529 7.13187H12.1157C12.2614 7.13187 12.3794 7.01385 12.3794 6.86819C12.3794 6.72254 12.2614 6.60452 12.1157 6.60452H2.9529C2.80724 6.60452 2.68922 6.72254 2.68922 6.86819C2.68922 7.01385 2.80728 7.13187 2.9529 7.13187Z" fill="#212121"/>
<path d="M2.9529 9.33109H12.1157C12.2614 9.33109 12.3794 9.21307 12.3794 9.06741C12.3794 8.92176 12.2614 8.80374 12.1157 8.80374H2.9529C2.80724 8.80374 2.68922 8.92176 2.68922 9.06741C2.68922 9.21307 2.80728 9.33109 2.9529 9.33109Z" fill="#212121"/>
<path d="M2.9529 13.7256H10.3385C10.4841 13.7256 10.6021 13.6076 10.6021 13.4619C10.6021 13.3163 10.4841 13.1983 10.3385 13.1983H2.9529C2.80724 13.1983 2.68922 13.3163 2.68922 13.4619C2.68922 13.6076 2.80728 13.7256 2.9529 13.7256Z" fill="#212121"/>
<path d="M2.9529 15.9209H10.3754C10.5211 15.9209 10.6391 15.8029 10.6391 15.6573C10.6391 15.5116 10.5211 15.3936 10.3754 15.3936H2.9529C2.80724 15.3936 2.68922 15.5116 2.68922 15.6573C2.68922 15.8029 2.80728 15.9209 2.9529 15.9209Z" fill="#212121"/>
<path d="M17.1998 11.1412C17.6047 10.7467 17.3895 10.049 16.818 9.96598L15.3664 9.75504C15.3138 9.74738 15.2683 9.71437 15.2448 9.66659L14.5956 8.35125C14.5645 8.28822 14.5247 8.23179 14.4783 8.18254C14.4783 8.01323 14.4783 2.69113 14.4783 2.54509C14.4783 2.05076 14.0762 1.64861 13.5818 1.64861H13.2325V0.532257C13.2325 0.309331 13.0511 0.12796 12.8282 0.12796H11.8086C11.5857 0.12796 11.4043 0.309331 11.4043 0.532257V1.64861H10.0435V0.532257C10.0435 0.309331 9.8621 0.12796 9.63917 0.12796H8.61964C8.39671 0.12796 8.21534 0.309331 8.21534 0.532257V1.64861H6.85451V0.532257C6.85451 0.309331 6.67314 0.12796 6.45022 0.12796H5.43069C5.20776 0.12796 5.02639 0.309331 5.02639 0.532257V1.64861H3.66552V0.532257C3.66552 0.309331 3.48415 0.12796 3.26123 0.12796H2.2417C2.01877 0.12796 1.8374 0.309331 1.8374 0.532257V1.64861H1.62868C1.05679 1.64861 0.591568 2.11383 0.591568 2.68572V17.0909C0.591568 17.6627 1.05679 18.128 1.62868 18.128H3.57735C3.72301 18.128 3.84103 18.0099 3.84103 17.8643C3.84103 17.7186 3.72301 17.6006 3.57735 17.6006H1.62871C1.34764 17.6006 1.11895 17.3719 1.11895 17.0909V4.92679H13.951V7.96816C13.6932 7.97789 13.4703 8.12755 13.3599 8.35125L12.7107 9.66662C12.6875 9.71377 12.6421 9.74731 12.5891 9.75504C10.9803 9.9888 11.1182 9.96686 11.059 9.98247C10.6106 10.1005 10.4131 10.6146 10.6446 11H2.95351C2.80785 11 2.68983 11.118 2.68983 11.2637C2.68983 11.4094 2.80785 11.5274 2.95351 11.5274H11.1518L11.806 12.1651C11.843 12.2012 11.8616 12.2547 11.8524 12.3081L11.6678 13.3846L11.6044 13.7538C11.5079 14.3187 12.0988 14.7458 12.6041 14.4801C14.0046 13.7439 13.9129 13.7879 13.9509 13.7817V17.0909C13.9509 17.3719 13.7223 17.6006 13.4412 17.6006H4.80782C4.66217 17.6006 4.54415 17.7186 4.54415 17.8643C4.54415 18.0099 4.66217 18.128 4.80782 18.128H13.4412C14.0131 18.128 14.4783 17.6627 14.4783 17.0909V14.0212L15.3514 14.4802C15.4525 14.5333 15.5604 14.5602 15.6719 14.5602C16.052 14.5602 16.3612 14.252 16.3612 13.8732C16.3612 13.7966 16.3528 13.7646 16.3137 13.5367C16.289 13.3932 16.1526 13.297 16.0092 13.3214C15.8657 13.346 15.7693 13.4823 15.7939 13.6259C15.8316 13.8458 15.8338 13.8501 15.8338 13.8732C15.8338 13.9861 15.7094 14.0726 15.5966 14.0133L14.3375 13.3514C14.3373 13.3513 14.3372 13.3512 14.3371 13.3511C14.0833 13.2179 13.8492 13.2296 13.6571 13.3307L12.3587 14.0133C12.2407 14.0754 12.1012 13.9772 12.1242 13.8429L12.3721 12.3973C12.4114 12.1695 12.3319 11.9411 12.174 11.7873L11.1236 10.7635C11.0333 10.6754 11.0757 10.5327 11.1799 10.4959C11.1902 10.4923 11.2013 10.4895 11.2132 10.4878L12.6648 10.2768C12.8893 10.2442 13.0832 10.1033 13.1836 9.89992L13.8327 8.58459C13.8931 8.46235 14.0647 8.46737 14.1226 8.58459L14.7718 9.89989C14.8721 10.1033 15.0661 10.2442 15.2906 10.2768L16.7421 10.4878C16.876 10.5072 16.9277 10.67 16.8317 10.7635L15.7814 11.7873C15.6491 11.9162 15.5733 12.096 15.5733 12.2807C15.5733 12.5825 15.761 12.6504 15.8902 12.6284C16.0214 12.6059 16.1331 12.4855 16.103 12.3083C16.0937 12.2541 16.1128 12.2007 16.1495 12.165L17.1998 11.1412ZM11.9317 0.655304H12.7051V2.91754C12.7051 3.13076 12.5316 3.30426 12.3184 3.30426C12.1052 3.30426 11.9317 3.13076 11.9317 2.91754C11.9317 2.67415 11.9317 0.89957 11.9317 0.655304ZM8.74269 0.655304H9.51612V2.91754C9.51612 3.13076 9.34263 3.30426 9.1294 3.30426C8.91618 3.30426 8.74269 3.13076 8.74269 2.91754C8.74269 2.67415 8.74269 0.89957 8.74269 0.655304ZM5.55373 0.655304H6.32717V2.91754C6.32717 3.13076 6.15367 3.30426 5.94045 3.30426C5.72723 3.30426 5.55373 3.13076 5.55373 2.91754C5.55373 2.67415 5.55373 0.89957 5.55373 0.655304ZM2.36474 0.655304H3.13818V2.91754C3.13818 3.13076 2.96469 3.30426 2.75146 3.30426C2.53824 3.30426 2.36474 3.13076 2.36474 2.91754C2.36474 2.67415 2.36474 0.89957 2.36474 0.655304ZM1.11895 4.39944V2.68572C1.11895 2.40464 1.34764 2.17595 1.62871 2.17595H1.83744V2.91754C1.83744 3.42157 2.24746 3.83164 2.7515 3.83164C3.25553 3.83164 3.66556 3.42161 3.66556 2.91757V2.17595H5.02642V2.91754C5.02642 3.42157 5.43645 3.83164 5.94049 3.83164C6.44452 3.83164 6.85455 3.42161 6.85455 2.91757V2.17595H8.21538V2.91754C8.21538 3.42157 8.6254 3.83164 9.12944 3.83164C9.63347 3.83164 10.0435 3.42161 10.0435 2.91757V2.17595H11.4044V2.91754C11.4044 3.42157 11.8144 3.83164 12.3184 3.83164C12.8225 3.83164 13.2325 3.42161 13.2325 2.91757V2.17595H13.5819C13.7854 2.17595 13.951 2.34154 13.951 2.54509V4.39944C13.6083 4.39944 1.40688 4.39944 1.11895 4.39944Z" fill="#212121"/>
</g>
<defs>
<clipPath id="clip0_1_1034">
<rect width="18" height="18" fill="white" transform="translate(0 0.12796)"/>
</clipPath>
</defs>
</svg>
