<svg width="18" height="19" viewBox="0 0 18 19" fill="none" xmlns="http://www.w3.org/2000/svg">
<path d="M17.1 11.828C16.72 11.8263 16.3819 11.5863 16.2552 11.228H14.7V13.928C14.7 14.425 14.297 14.828 13.8 14.828H11.1V16.3832C11.5129 16.5286 11.7608 16.9507 11.6867 17.3822C11.6124 17.8137 11.2378 18.1288 10.8 18.128H7.2C6.76216 18.1288 6.3876 17.8137 6.31333 17.3822C6.23921 16.9507 6.48706 16.5286 6.9 16.3832V14.828H4.2C3.70298 14.828 3.3 14.425 3.3 13.928V11.228H1.74478C1.59932 11.6409 1.1773 11.8888 0.745754 11.8146C0.314211 11.7404 -0.000877072 11.3658 1.83414e-06 10.928V7.32796C-0.000877072 6.89012 0.314211 6.51556 0.745754 6.44129C1.1773 6.36717 1.59932 6.61502 1.74478 7.02796H3.3V4.32796C3.3 3.83094 3.70298 3.42796 4.2 3.42796H6.9V1.87274C6.48706 1.72728 6.23921 1.30526 6.31333 0.873713C6.3876 0.442169 6.76216 0.127081 7.2 0.12796H10.8C11.2378 0.127081 11.6124 0.442169 11.6867 0.873713C11.7608 1.30526 11.5129 1.72728 11.1 1.87274V3.42796H13.8C14.297 3.42796 14.7 3.83094 14.7 4.32796V7.02796H16.2552C16.4007 6.61502 16.8227 6.36717 17.2542 6.44129C17.6858 6.51556 18.0009 6.89012 18 7.32796V10.928C18 11.425 17.597 11.828 17.1 11.828ZM7.2 17.528H10.8C10.9657 17.528 11.1 17.3936 11.1 17.228C11.1 17.0623 10.9657 16.928 10.8 16.928H7.2C7.03433 16.928 6.9 17.0623 6.9 17.228C6.9 17.3936 7.03433 17.528 7.2 17.528ZM7.5 16.328H10.5V14.828H7.5V16.328ZM0.900002 7.02796C0.734328 7.02796 0.600002 7.16229 0.600002 7.32796V10.928C0.600002 11.0936 0.734328 11.228 0.900002 11.228C1.06568 11.228 1.2 11.0936 1.2 10.928V7.32796C1.2 7.16229 1.06568 7.02796 0.900002 7.02796ZM1.8 7.62796V10.628H3.3V7.62796H1.8ZM10.8 0.727961H7.2C7.03433 0.727961 6.9 0.862288 6.9 1.02796C6.9 1.19363 7.03433 1.32796 7.2 1.32796H10.8C10.9657 1.32796 11.1 1.19363 11.1 1.02796C11.1 0.862288 10.9657 0.727961 10.8 0.727961ZM10.5 1.92796H7.5V3.42796H10.5V1.92796ZM14.1 4.32796C14.1 4.16229 13.9657 4.02796 13.8 4.02796H4.2C4.03433 4.02796 3.9 4.16229 3.9 4.32796V13.928C3.9 14.0936 4.03433 14.228 4.2 14.228H13.8C13.9657 14.228 14.1 14.0936 14.1 13.928V4.32796ZM14.7 10.628H16.2V7.62796H14.7V10.628ZM17.4 7.32796C17.4 7.16229 17.2657 7.02796 17.1 7.02796C16.9343 7.02796 16.8 7.16229 16.8 7.32796V10.928C16.8 11.0936 16.9343 11.228 17.1 11.228C17.2657 11.228 17.4 11.0936 17.4 10.928V7.32796Z" fill="#212121"/>
</svg>
