<svg width="24" height="25" viewBox="0 0 24 25" fill="none" xmlns="http://www.w3.org/2000/svg">
<path d="M5.64 17.753H3C2.76718 17.753 2.54005 17.681 2.34987 17.5466C2.15969 17.4123 2.01581 17.2224 1.938 17.003H5.29505C5.3945 17.003 5.48988 16.9635 5.56021 16.8931C5.63054 16.8228 5.67005 16.7274 5.67005 16.628C5.67005 16.5285 5.63054 16.4331 5.56021 16.3628C5.48988 16.2925 5.3945 16.253 5.29505 16.253H1.5C1.45075 16.2529 1.40197 16.2626 1.35646 16.2814C1.31095 16.3003 1.2696 16.3279 1.23477 16.3627C1.19994 16.3976 1.17232 16.4389 1.15349 16.4844C1.13465 16.5299 1.12497 16.5787 1.125 16.628C1.12473 16.8743 1.17304 17.1182 1.26717 17.3458C1.3613 17.5734 1.4994 17.7802 1.67356 17.9544C1.84773 18.1286 2.05454 18.2667 2.28215 18.3608C2.50975 18.4549 2.7537 18.5032 3 18.503H5.64C5.73946 18.503 5.83484 18.4635 5.90517 18.3931C5.97549 18.3228 6.015 18.2274 6.015 18.128C6.015 18.0285 5.97549 17.9331 5.90517 17.8628C5.83484 17.7925 5.73946 17.753 5.64 17.753Z" fill="#212121"/>
<path d="M22.501 16.253H18.7063C18.6068 16.253 18.5115 16.2925 18.4411 16.3628C18.3708 16.4331 18.3313 16.5285 18.3313 16.628C18.3313 16.7274 18.3708 16.8228 18.4411 16.8931C18.5115 16.9635 18.6068 17.003 18.7063 17.003H22.0615C21.9838 17.2222 21.8402 17.412 21.6503 17.5463C21.4604 17.6806 21.2336 17.7528 21.001 17.753H18.3613C18.2619 17.753 18.1665 17.7925 18.0962 17.8628C18.0258 17.9331 17.9863 18.0285 17.9863 18.128C17.9863 18.2274 18.0258 18.3228 18.0962 18.3931C18.1665 18.4635 18.2619 18.503 18.3613 18.503H21.001C21.4981 18.5024 21.9747 18.3047 22.3262 17.9532C22.6777 17.6017 22.8755 17.1251 22.876 16.628C22.876 16.5787 22.8663 16.5299 22.8475 16.4844C22.8287 16.4389 22.801 16.3976 22.7662 16.3627C22.7314 16.3279 22.69 16.3003 22.6445 16.2814C22.599 16.2626 22.5502 16.2529 22.501 16.253Z" fill="#212121"/>
<path d="M5.43493 6.92777L5.36719 6.99515C3.61571 8.75896 2.63038 11.1423 2.625 13.628V15.128C2.62497 15.1772 2.63465 15.226 2.65349 15.2715C2.67232 15.317 2.69994 15.3584 2.73477 15.3932C2.7696 15.428 2.81095 15.4556 2.85646 15.4745C2.90197 15.4933 2.95075 15.503 3 15.503H5.29504C5.3945 15.503 5.48988 15.4635 5.56021 15.3931C5.63054 15.3228 5.67004 15.2274 5.67004 15.128C5.67004 15.0285 5.63054 14.9331 5.56021 14.8628C5.48988 14.7925 5.3945 14.753 5.29504 14.753H3.375V13.628C3.37974 11.3421 4.28527 9.15027 5.89526 7.52762L5.96521 7.45804C6.0006 7.42335 6.02877 7.38199 6.04808 7.33635C6.0674 7.29071 6.07747 7.24169 6.07772 7.19213C6.07797 7.14257 6.06839 7.09346 6.04954 7.04762C6.03069 7.00179 6.00294 6.96014 5.9679 6.9251C5.93286 6.89006 5.89121 6.86231 5.84538 6.84346C5.79954 6.82461 5.75043 6.81503 5.70087 6.81528C5.65131 6.81553 5.60229 6.8256 5.55665 6.84492C5.51101 6.86423 5.46962 6.89237 5.43493 6.92777Z" fill="#212121"/>
<path d="M8.27713 5.8507C9.59138 5.21911 11.0444 4.93141 12.5002 5.01454C13.9559 5.09767 15.3668 5.54891 16.6006 6.326C17.8344 7.10309 18.8508 8.1806 19.5546 9.45763C20.2584 10.7347 20.6266 12.1694 20.6247 13.6276V14.7526H18.705C18.6055 14.7526 18.5102 14.7921 18.4398 14.8624C18.3695 14.9327 18.33 15.0281 18.33 15.1276C18.33 15.227 18.3695 15.3224 18.4398 15.3927C18.5102 15.463 18.6055 15.5026 18.705 15.5026H20.9997C21.0489 15.5026 21.0977 15.4929 21.1432 15.4741C21.1887 15.4552 21.2301 15.4276 21.2649 15.3928C21.2997 15.358 21.3273 15.3166 21.3462 15.2711C21.365 15.2256 21.3747 15.1768 21.3747 15.1276V13.6276C21.3691 11.1415 20.3835 8.758 18.6317 6.994C17.3272 5.68824 15.6652 4.79807 13.8554 4.43579C13.8106 3.97333 13.5948 3.54426 13.2502 3.23262C12.9056 2.92098 12.457 2.74923 11.9924 2.75102C11.5278 2.75281 11.0806 2.928 10.7384 3.24229C10.3962 3.55657 10.1837 3.98729 10.1424 4.45008C9.38512 4.60013 8.64934 4.84352 7.95194 5.17467C7.90738 5.19591 7.86745 5.22575 7.83445 5.26246C7.80144 5.29917 7.776 5.34203 7.7596 5.38859C7.74319 5.43515 7.73614 5.48449 7.73884 5.53379C7.74155 5.58308 7.75396 5.63135 7.77536 5.67584C7.79676 5.72033 7.82673 5.76015 7.86355 5.79303C7.90037 5.82591 7.94333 5.8512 7.98994 5.86744C8.03656 5.88369 8.08592 5.89057 8.13521 5.8877C8.18449 5.88482 8.23272 5.87225 8.27713 5.8507ZM11.9997 3.50109C12.2322 3.50133 12.4589 3.5735 12.6488 3.70772C12.8387 3.84193 12.9824 4.0316 13.0602 4.25072L10.9391 4.24997C11.0171 4.03101 11.1608 3.84151 11.3507 3.70745C11.5406 3.57338 11.7672 3.5013 11.9997 3.50109Z" fill="#212121"/>
<path d="M7.24819 9.37738C7.32728 9.28912 7.40883 9.20294 7.49282 9.11884C8.16587 8.44755 8.97984 7.93442 9.87575 7.61664C9.9222 7.60024 9.96497 7.57485 10.0016 7.54192C10.0383 7.50899 10.0681 7.46917 10.0893 7.42473C10.1106 7.38028 10.1229 7.33208 10.1255 7.28289C10.1281 7.23369 10.121 7.18446 10.1046 7.138C10.0882 7.09155 10.0628 7.04878 10.0299 7.01213C9.99699 6.97549 9.95716 6.94569 9.91272 6.92443C9.86827 6.90318 9.82007 6.89089 9.77088 6.88826C9.72168 6.88563 9.67245 6.89272 9.626 6.90912C8.62459 7.26443 7.71479 7.8381 6.96254 8.58856C6.86842 8.68231 6.77736 8.7785 6.68935 8.87713C6.62301 8.95124 6.58883 9.04867 6.59432 9.14797C6.59982 9.24728 6.64454 9.34034 6.71864 9.40668C6.79275 9.47302 6.89017 9.5072 6.98948 9.5017C7.08879 9.49621 7.18185 9.45148 7.24819 9.37738Z" fill="#212121"/>
<path d="M11.9981 21.5064H11.993C10.9296 21.5053 9.88839 21.2021 8.99059 20.6322C8.09279 20.0623 7.37532 19.2492 6.92168 18.2874C6.67505 17.7798 6.51206 17.2357 6.43901 16.6761C6.35045 16.1429 6.35107 15.5988 6.44084 15.0658C6.63306 13.7298 7.3 12.5077 8.31958 11.6231C9.33915 10.7386 10.6432 10.2508 11.993 10.2491H11.9981C12.7378 10.2474 13.4704 10.3924 14.1536 10.6758C14.8369 10.9592 15.4571 11.3752 15.9784 11.8999C16.8357 12.7597 17.3913 13.8741 17.5619 15.0761C17.6419 15.609 17.6416 16.1509 17.5612 16.6838C17.4876 17.242 17.3246 17.7847 17.0785 18.2911C16.6234 19.2534 15.9042 20.0665 15.0047 20.6358C14.1052 21.205 13.0626 21.507 11.9981 21.5064ZM11.9981 10.9991H11.9937C10.823 11.0007 9.69208 11.4242 8.80832 12.192C7.92456 12.9598 7.34718 14.0204 7.18206 15.1794C7.10466 15.6383 7.10415 16.1068 7.18056 16.5659C7.24329 17.0516 7.3844 17.5239 7.5984 17.9644C7.99112 18.7985 8.61279 19.5038 9.39096 19.9981C10.1691 20.4924 11.0718 20.7554 11.9937 20.7564H11.9981C12.921 20.7571 13.8251 20.4952 14.6048 20.0014C15.3845 19.5077 16.0077 18.8023 16.4017 17.9677C16.6145 17.5304 16.7552 17.0616 16.8185 16.5794C16.8893 16.1169 16.8898 15.6464 16.82 15.1838C16.677 14.1404 16.195 13.1729 15.4482 12.4302C14.9962 11.9755 14.4586 11.6149 13.8664 11.3692C13.2742 11.1235 12.6392 10.9978 11.9981 10.9991ZM11.9955 20.002C11.1872 20.003 10.3966 19.7648 9.72319 19.3176C9.67696 19.2868 9.63814 19.2462 9.60952 19.1986C9.5809 19.151 9.5632 19.0977 9.5577 19.0424C9.5522 18.9872 9.55904 18.9314 9.57771 18.8791C9.59639 18.8268 9.62644 18.7793 9.6657 18.7401L14.863 13.5428C14.9022 13.5036 14.9496 13.4736 15.0018 13.4549C15.0541 13.4362 15.1098 13.4294 15.165 13.4348C15.2201 13.4402 15.2734 13.4578 15.321 13.4863C15.3686 13.5148 15.4093 13.5535 15.4401 13.5996C15.732 14.0402 15.9366 14.5327 16.0429 15.0505C16.1512 15.5951 16.1514 16.1556 16.0436 16.7003L16.0429 16.7054C15.9176 17.3045 15.6606 17.8683 15.2907 18.3559C15.1788 18.5145 15.0525 18.6625 14.9135 18.7979C14.5301 19.1805 14.075 19.4837 13.5743 19.6903C13.0737 19.897 12.5372 20.0029 11.9955 20.002ZM10.5431 18.9232C11.1727 19.2233 11.8796 19.3215 12.5671 19.2041C13.2546 19.0868 13.8889 18.7597 14.3832 18.2677C14.4939 18.1599 14.5944 18.0422 14.6835 17.9161C14.9904 17.5136 15.2038 17.0479 15.3083 16.5527C15.4558 15.8324 15.3637 15.0837 15.0461 14.4206L10.5431 18.9232ZM8.87322 18.3226C8.86113 18.3226 8.84868 18.3218 8.83623 18.3207C8.78102 18.3153 8.72772 18.2976 8.68016 18.2691C8.6326 18.2405 8.59197 18.2017 8.5612 18.1556C8.26932 17.7153 8.0648 17.2229 7.95879 16.7054C7.84233 16.1597 7.84233 15.5955 7.95879 15.0498C8.09292 14.3876 8.38784 13.7687 8.81754 13.2474C9.24725 12.7261 9.79856 12.3185 10.4229 12.0604C11.0473 11.8024 11.7255 11.7019 12.3978 11.7677C13.0702 11.8335 13.716 12.0637 14.2785 12.4379C14.3246 12.4688 14.3633 12.5095 14.3918 12.5572C14.4203 12.6048 14.4379 12.6581 14.4433 12.7133C14.449 12.7685 14.4424 12.8243 14.4237 12.8766C14.4051 12.9289 14.375 12.9763 14.3356 13.0155L9.13835 18.2127C9.06803 18.283 8.97266 18.3226 8.87322 18.3226ZM12.001 12.5017C11.2221 12.499 10.4664 12.7669 9.8631 13.2596C9.25976 13.7523 8.84619 14.4391 8.69304 15.2028C8.59789 15.6468 8.59776 16.1058 8.69268 16.5498V16.5509C8.74887 16.8217 8.83714 17.0849 8.95561 17.3349L13.4582 12.8323C13.0034 12.6144 12.5054 12.5013 12.001 12.5017Z" fill="#212121"/>
<path d="M6.80273 6.65335C7.00984 6.65335 7.17773 6.48546 7.17773 6.27835C7.17773 6.07124 7.00984 5.90335 6.80273 5.90335C6.59563 5.90335 6.42773 6.07124 6.42773 6.27835C6.42773 6.48546 6.59563 6.65335 6.80273 6.65335Z" fill="#212121"/>
</svg>
