<svg width="30" height="28" viewBox="0 0 30 28" fill="none" xmlns="http://www.w3.org/2000/svg">
<path d="M28.333 24.666V27.3327H1.66634V24.666H2.99967V15.6556C1.39169 14.5794 0.333008 12.7463 0.333008 10.666C0.333008 9.56316 0.632248 8.50096 1.1773 7.59596L4.79341 1.33268C5.03158 0.920149 5.47175 0.666016 5.9481 0.666016H24.0513C24.5275 0.666016 24.9678 0.920149 25.2059 1.33268L28.8097 7.57498C29.3671 8.50096 29.6663 9.56316 29.6663 10.666C29.6663 12.7463 28.6077 14.5794 26.9997 15.6556V24.666H28.333ZM6.71787 3.33268L3.47431 8.9503C3.16513 9.46392 2.99967 10.0512 2.99967 10.666C2.99967 12.507 4.49206 13.9994 6.33301 13.9994C7.70762 13.9994 8.9259 13.1598 9.42873 11.9054C9.87621 10.789 11.4565 10.789 11.904 11.9054C12.4067 13.1598 13.625 13.9994 14.9997 13.9994C16.3743 13.9994 17.5926 13.1598 18.0954 11.9054C18.5429 10.789 20.1231 10.789 20.5706 11.9054C21.0734 13.1598 22.2917 13.9994 23.6663 13.9994C25.5073 13.9994 26.9997 12.507 26.9997 10.666C26.9997 10.0512 26.8342 9.46392 26.5126 8.9293L23.2814 3.33268H6.71787Z" fill="#212121"/>
</svg>
