<svg width="50" height="21" viewBox="0 0 50 21" fill="none" xmlns="http://www.w3.org/2000/svg">
<path d="M5.39273 18.1666C5.39273 18.0568 5.50186 17.9745 5.76558 17.9745C5.94746 17.9745 6.14752 18.0111 6.34759 18.13L6.54765 17.7092C6.35668 17.5995 6.04749 17.5354 5.76558 17.5354C5.17448 17.5354 4.82891 17.8099 4.82891 18.1941C4.82891 19.0082 6.05658 18.6697 6.05658 18.999C6.05658 19.1088 5.95655 19.182 5.68373 19.182C5.4382 19.182 5.15629 19.0996 4.98351 18.9807L4.78344 19.4015C4.97441 19.5296 5.31998 19.621 5.65645 19.621C6.26574 19.621 6.61131 19.3558 6.61131 18.9716C6.6204 18.1758 5.39273 18.5142 5.39273 18.1666ZM13.6681 17.8282V17.5629H13.1043V19.6027H13.6954V18.6423C13.6954 18.2489 13.9137 18.0751 14.232 18.0751C14.2774 18.0751 14.3138 18.0751 14.3593 18.0843V17.5354C14.0501 17.5354 13.8136 17.6361 13.6681 17.8282ZM12.0767 18.5691C12.0767 18.9441 11.8767 19.1179 11.6129 19.1179C11.3492 19.1179 11.2037 18.9624 11.2037 18.624V17.5629H10.6126V18.7155C10.6126 19.3466 10.9673 19.6302 11.4765 19.6302C11.7221 19.6302 11.9494 19.5387 12.104 19.3558V19.6027H12.6587V17.5629H12.0676V18.5691H12.0767ZM48.9887 4.61026C48.9887 4.54623 48.9705 4.49134 48.9341 4.4639C48.8978 4.43646 48.8341 4.41816 48.7432 4.41816H48.5158V5.02189H48.6159V4.82065H48.7432L48.8887 5.02189H49.016L48.8614 4.80235C48.9432 4.76576 48.9887 4.70173 48.9887 4.61026ZM48.7341 4.72003H48.6068V4.50049H48.7341C48.7886 4.50049 48.825 4.50964 48.8432 4.52793C48.8614 4.54623 48.8796 4.57367 48.8796 4.61026C48.8796 4.64685 48.8705 4.67429 48.8523 4.69258C48.8341 4.71088 48.7977 4.72003 48.7341 4.72003ZM9.23034 17.5354C8.90296 17.5354 8.57558 17.6269 8.35733 17.7824L8.56649 18.1941C8.71199 18.0751 8.93934 18.002 9.1485 18.002C9.46678 18.002 9.61228 18.1483 9.61228 18.4044H9.1485C8.53011 18.4044 8.27549 18.6514 8.27549 19.0173C8.27549 19.3741 8.5574 19.6302 9.03028 19.6302C9.33037 19.6302 9.53953 19.5296 9.64866 19.3466V19.6027H10.1943V18.441C10.2034 17.819 9.83963 17.5354 9.23034 17.5354ZM9.61228 18.9533C9.54863 19.1362 9.37584 19.2277 9.17578 19.2277C8.96662 19.2277 8.8484 19.1271 8.8484 18.9807C8.8484 18.8435 8.93934 18.7429 9.21215 18.7429H9.61228V18.9533ZM7.78442 19.1637C7.62982 19.1637 7.52979 19.0722 7.52979 18.8984V18.066H8.02995V17.6086H7.52979V17.1147H6.93869V17.6086H6.63859V18.066H6.94778V18.9075C6.94778 19.3924 7.22969 19.6393 7.70257 19.6393C7.88445 19.6393 8.05723 19.5936 8.18455 19.5113L8.02995 19.0905C7.9572 19.1362 7.87536 19.1637 7.78442 19.1637ZM3.63762 17.5354C3.01923 17.5354 2.55545 17.9745 2.55545 18.5874C2.55545 19.1911 3.01014 19.6393 3.71037 19.6393C4.07412 19.6393 4.35603 19.5296 4.547 19.31L4.23781 18.9716C4.1014 19.0996 3.94681 19.1728 3.72855 19.1728C3.41936 19.1728 3.20111 19.0173 3.14655 18.7612H4.68341C4.68341 18.7155 4.6925 18.6514 4.6925 18.6057C4.6925 17.9288 4.23781 17.5354 3.63762 17.5354ZM3.14655 18.4044C3.19202 18.1392 3.38299 17.9837 3.64671 17.9837C3.91043 17.9837 4.1014 18.1483 4.14687 18.4044H3.14655ZM49.116 4.31754C49.0069 4.20778 48.8796 4.15289 48.725 4.15289C48.5704 4.15289 48.4431 4.20778 48.3339 4.31754C48.2248 4.42731 48.1703 4.55537 48.1703 4.71088C48.1703 4.86638 48.2248 4.99445 48.3339 5.10421C48.4431 5.21398 48.5704 5.26887 48.725 5.26887C48.8796 5.26887 49.0069 5.21398 49.116 5.10421C49.2251 4.99445 49.2797 4.86638 49.2797 4.71088C49.2706 4.56452 49.216 4.42731 49.116 4.31754ZM49.0615 5.05848C48.9705 5.1591 48.8523 5.20484 48.7159 5.20484C48.5795 5.20484 48.4704 5.1591 48.3703 5.05848C48.2794 4.967 48.2339 4.84809 48.2339 4.71088C48.2339 4.57367 48.2794 4.4639 48.3703 4.36328C48.4613 4.27181 48.5795 4.21692 48.7159 4.21692C48.8523 4.21692 48.9614 4.26266 49.0615 4.36328C49.1524 4.45475 49.1979 4.57367 49.1979 4.71088C49.207 4.84809 49.1615 4.967 49.0615 5.05848ZM7.39338 6.80562C7.00235 6.47632 6.52946 6.31166 5.97474 6.31166C5.42001 6.31166 4.90166 6.48546 4.43788 6.82391C3.97409 7.17151 3.70127 7.62888 3.62852 8.20516H8.07542C8.01176 7.60144 7.78442 7.12578 7.39338 6.80562ZM14.1774 11.0042C14.1774 11.3701 14.3138 11.6537 14.5866 11.8458C14.8594 12.0379 15.2414 12.1385 15.7415 12.1385C16.2417 12.1385 16.6873 11.983 17.0692 11.672C17.4512 11.361 17.6422 10.9494 17.6422 10.4371V9.94316H15.8689C14.7412 9.94316 14.1774 10.2999 14.1774 11.0042ZM2.37357 17.9105C2.37357 17.3159 1.93706 16.95 1.22774 16.95H0.0910098V19.6027H0.700299V18.8618H1.22774H1.25502L1.76428 19.6027H2.41904L1.82794 18.752C2.1735 18.5965 2.37357 18.3038 2.37357 17.9105ZM1.20046 18.3679H0.700299V17.444H1.20046C1.57331 17.444 1.76428 17.6178 1.76428 17.9105C1.75519 18.1941 1.57331 18.3679 1.20046 18.3679ZM1.91888 15.5322H26.4632C27.4999 15.5322 28.3547 14.5168 28.382 13.2636C27.4999 14.0686 26.5723 14.4711 25.6084 14.4711C24.6353 14.4711 23.8078 14.1418 23.1349 13.5015C22.471 12.8612 22.1254 11.9739 22.1254 10.867V6.16531H20.9432V4.12545H22.1254V1.07939H24.9718V4.12545H28.382V2.34172C28.382 1.05194 27.5181 0 26.4632 0H1.91888C0.854894 0 7.11412e-05 1.05194 7.11412e-05 2.34172V13.1905C-0.00902272 14.4802 0.854894 15.5322 1.91888 15.5322ZM15.9507 6.22934C15.4596 6.22934 14.9413 6.32996 14.3957 6.52205C13.85 6.71415 13.3862 6.96112 13.0134 7.25384L11.7493 5.41522C13.077 4.44561 14.5957 3.95165 16.3054 3.95165C17.533 3.95165 18.5425 4.26266 19.3154 4.87553C20.0975 5.49755 20.4794 6.47632 20.4794 7.81183V14.3064H17.824V13.0898C17.0965 14.0137 16.1962 14.4711 15.1232 14.4711C14.0501 14.4711 13.1498 14.1601 12.4223 13.5381C11.6948 12.916 11.331 12.0745 11.331 11.0408C11.331 9.99804 11.7039 9.22052 12.4587 8.69912C13.2135 8.17772 14.2411 7.92159 15.5506 7.92159H17.6603V7.86671C17.6603 6.77818 17.0965 6.22934 15.9507 6.22934ZM2.29172 5.37863C3.31933 4.42731 4.52881 3.9608 5.92018 3.9608C7.31154 3.9608 8.49374 4.38157 9.47587 5.23228C10.4489 6.08298 10.9309 7.24469 10.9309 8.71741V10.2359H3.54668C3.63762 10.7939 3.91953 11.2421 4.41059 11.5988C4.90166 11.9556 5.45639 12.1294 6.06568 12.1294C7.05691 12.1294 7.87536 11.7909 8.51193 11.1232L10.0943 12.8429C8.94843 13.9314 7.61163 14.4711 6.07477 14.4711C4.53791 14.4711 3.26477 13.9954 2.25535 13.0441C1.24593 12.0928 0.745768 10.8122 0.745768 9.21137C0.763956 7.60144 1.27321 6.32996 2.29172 5.37863ZM24.9809 10.7481C24.9809 11.1323 25.0809 11.4433 25.281 11.6629C25.4811 11.8824 25.7175 11.9922 25.9994 11.9922C26.5269 11.9922 26.9725 11.7543 27.3362 11.2695L28.3911 13.2545V6.17445H24.9809V10.7481ZM39.0855 6.50376C39.0855 6.49461 39.0764 6.49461 39.0764 6.48546C38.8581 6.11957 38.5944 5.78112 38.2761 5.47011C38.1488 5.34204 38.0124 5.22313 37.876 5.10421C37.8669 5.09507 37.8669 5.09507 37.8578 5.08592C37.3849 4.70173 36.8575 4.40902 36.2755 4.21692C36.2664 4.21692 36.2573 4.20778 36.2482 4.20778C35.7026 4.03398 35.1115 3.9425 34.4749 3.9425H34.4658C34.4567 3.9425 34.4476 3.9425 34.4385 3.9425C33.8111 3.9425 33.2199 4.03398 32.6743 4.20778C32.6652 4.20778 32.6561 4.21692 32.647 4.21692C32.065 4.40902 31.5376 4.69258 31.0647 5.08592C31.0556 5.09507 31.0556 5.09507 31.0465 5.10421C30.9101 5.21398 30.7828 5.3329 30.6555 5.46096C30.3372 5.78112 30.0644 6.11957 29.8461 6.48546C29.8461 6.49461 29.837 6.49461 29.837 6.50376C29.3732 7.29043 29.1368 8.18687 29.1368 9.18393C29.1368 10.6566 29.6461 11.8915 30.6555 12.8977C31.6649 13.904 32.938 14.4071 34.4658 14.4071C35.9936 14.4071 37.2667 13.904 38.2761 12.8977C39.2856 11.8915 39.7948 10.6566 39.7948 9.18393C39.7948 8.18687 39.5584 7.29043 39.0855 6.50376ZM38.6672 9.90657C38.5671 9.93401 38.4671 9.96145 38.3762 9.97975C38.1579 10.0255 37.9306 10.0346 37.685 9.99804L37.3849 9.94316C37.2394 9.91571 37.1212 9.88827 37.0485 9.87912C36.9393 9.86998 36.8575 9.86998 36.7847 9.87912C36.7666 9.94316 36.7575 9.99804 36.7393 10.0621C36.9575 10.1352 37.1485 10.2267 37.294 10.3273C37.1667 10.3456 37.0121 10.3273 36.8302 10.2725C36.7847 10.2633 36.7393 10.245 36.6847 10.2267C36.6756 10.245 36.6756 10.2633 36.6665 10.2725C36.7666 10.3182 36.8848 10.3548 37.003 10.3914L36.7666 10.428C36.7029 10.4463 36.6392 10.4463 36.5847 10.4463C36.5756 10.4554 36.5756 10.4646 36.5665 10.4828C36.6938 10.556 36.8211 10.6384 36.9666 10.7481L37.3849 11.0957C37.5486 11.2238 37.6941 11.3244 37.8305 11.3976C38.0033 11.4891 38.1761 11.5348 38.358 11.5622C38.0579 11.5348 37.8578 11.5073 37.7487 11.4799C37.5304 11.4342 37.3213 11.3518 37.1121 11.2146C37.0576 11.1872 36.9757 11.1323 36.8575 11.05L36.5938 10.8487C36.5119 10.803 36.4483 10.7756 36.3937 10.7573C36.3573 10.8122 36.3119 10.867 36.2664 10.9219C36.421 11.0683 36.5483 11.2146 36.6392 11.361C36.5119 11.3244 36.3755 11.2421 36.23 11.1232C36.2118 11.1049 36.1755 11.0774 36.1573 11.05C36.1482 11.0591 36.13 11.0774 36.1209 11.0866C36.1845 11.1598 36.2664 11.2329 36.3573 11.297L36.13 11.2421C36.0845 11.2329 36.039 11.2146 36.0027 11.1963C35.9845 11.2055 35.9663 11.2238 35.9481 11.2329C36.0209 11.3336 36.0936 11.4616 36.1664 11.608L36.4119 12.0928C36.5119 12.2849 36.6029 12.4312 36.6938 12.5501C36.8211 12.7057 36.9575 12.8246 37.1121 12.9069C36.8575 12.7697 36.6847 12.6691 36.5938 12.5959C36.4119 12.4678 36.2482 12.3032 36.1118 12.1019C36.0845 12.0562 36.0299 11.9739 35.9663 11.8458C35.8935 11.7177 35.8299 11.6171 35.7935 11.5622C35.7571 11.5074 35.7208 11.4616 35.6844 11.425C35.6207 11.4616 35.548 11.4982 35.4843 11.5348C35.5571 11.7177 35.6025 11.8824 35.6207 12.0379C35.5207 11.9556 35.4388 11.8275 35.357 11.6537C35.3479 11.6354 35.3388 11.6171 35.3297 11.5988C35.3115 11.608 35.2933 11.608 35.2752 11.6171C35.3024 11.6994 35.3388 11.7818 35.3843 11.8641L35.2024 11.7177C35.1751 11.6994 35.1569 11.6811 35.1388 11.6629C35.1115 11.672 35.0842 11.6811 35.0478 11.6903C35.066 11.8092 35.0842 11.9373 35.0933 12.0836L35.1115 12.6233C35.1206 12.8337 35.1478 13.0075 35.1842 13.1539C35.2297 13.3368 35.3115 13.5015 35.4025 13.6478L35.2206 13.4009C35.1569 13.3094 35.0933 13.227 35.0569 13.1539C34.9478 12.9526 34.875 12.7422 34.8296 12.5136C34.8114 12.4587 34.8114 12.3581 34.7932 12.2117C34.775 12.0562 34.775 11.9464 34.7568 11.8824C34.7477 11.8367 34.7386 11.7909 34.7204 11.7543C34.6477 11.7635 34.5658 11.7635 34.4931 11.7635C34.484 11.7635 34.484 11.7635 34.4749 11.7635C34.4658 11.9464 34.4476 12.1111 34.4021 12.2483C34.3476 12.1294 34.3203 11.9739 34.3112 11.7909C34.3112 11.7818 34.3112 11.7635 34.3112 11.7543C34.293 11.7543 34.2748 11.7543 34.2657 11.7543C34.2657 11.8367 34.2566 11.9098 34.2657 11.9922L34.1566 11.7818C34.1475 11.7635 34.1384 11.7452 34.1293 11.736C34.093 11.7269 34.0566 11.7269 34.0202 11.7177C33.9929 11.8275 33.9566 11.9464 33.9111 12.0745L33.7019 12.5776C33.6292 12.7788 33.5746 12.9435 33.5564 13.0898C33.5291 13.2819 33.5291 13.4557 33.5655 13.6295L33.5019 13.3277C33.4837 13.2179 33.4655 13.1264 33.4564 13.035C33.4382 12.8154 33.4473 12.5867 33.511 12.3581C33.5291 12.3032 33.5564 12.2025 33.6019 12.0745C33.6565 11.9281 33.6928 11.8275 33.7019 11.7635C33.711 11.7177 33.7201 11.6812 33.7292 11.6354C33.6474 11.608 33.5746 11.5805 33.5019 11.5439C33.42 11.6994 33.3382 11.8458 33.229 11.9556C33.229 11.8275 33.2563 11.6812 33.3291 11.4982C33.3291 11.4891 33.3382 11.4708 33.3473 11.4616C33.3291 11.4525 33.32 11.4433 33.3109 11.4342C33.2745 11.5073 33.2381 11.5714 33.2109 11.6537L33.1927 11.4159C33.1927 11.3976 33.1927 11.3793 33.1927 11.3518C33.1654 11.3336 33.1381 11.3061 33.1108 11.2878C33.0381 11.3793 32.9562 11.4708 32.8562 11.5714L32.4652 11.9556C32.3106 12.1019 32.2014 12.23 32.1196 12.3581C32.0196 12.5136 31.9377 12.6691 31.9013 12.8429L31.965 12.5593C31.9923 12.4495 32.0196 12.3581 32.0468 12.2757C32.1105 12.0745 32.2287 11.8641 32.3833 11.672C32.4197 11.6263 32.4833 11.5439 32.5834 11.4433L32.8016 11.2055C32.838 11.1689 32.8562 11.1232 32.8835 11.0957C32.8289 11.0408 32.7743 10.986 32.7198 10.9219C32.5743 11.0408 32.4288 11.1323 32.2924 11.1872C32.3469 11.0683 32.4288 10.9494 32.5743 10.8122C32.5834 10.803 32.6016 10.7847 32.6198 10.7756C32.6107 10.7573 32.6016 10.7481 32.5834 10.7298C32.5197 10.7847 32.4561 10.8396 32.3924 10.9036L32.4743 10.6841C32.4833 10.6566 32.5015 10.6292 32.5106 10.6109C32.4924 10.5835 32.4743 10.556 32.4652 10.5377C32.356 10.5926 32.2378 10.6475 32.1014 10.7024L31.5921 10.8853C31.3921 10.9677 31.2284 11.0408 31.1011 11.1232C30.9465 11.2238 30.8101 11.3427 30.71 11.4708L30.8828 11.2329C30.9465 11.1415 31.0192 11.0683 31.0738 11.0042C31.2193 10.8396 31.4103 10.7024 31.6194 10.5835C31.674 10.556 31.7558 10.5194 31.8922 10.4554C32.0287 10.4005 32.1378 10.3548 32.1923 10.3273C32.2469 10.2999 32.2924 10.2725 32.3378 10.245C32.3106 10.1718 32.2833 10.0987 32.2651 10.0255C32.0741 10.0804 31.8922 10.1078 31.7376 10.1078C31.8286 10.0163 31.965 9.94316 32.156 9.88827C32.1742 9.87912 32.2014 9.86998 32.2287 9.86083C32.2287 9.84254 32.2196 9.82424 32.2196 9.80595C32.1287 9.82424 32.0377 9.85168 31.9377 9.89742L32.1105 9.73277C32.1378 9.70533 32.1651 9.67788 32.1923 9.65959C32.1923 9.63215 32.1923 9.6047 32.1832 9.57726L31.7467 9.58641L31.2011 9.55897L30.6555 9.57726C30.4645 9.6047 30.2917 9.66874 30.1371 9.75106L30.4008 9.58641C30.5009 9.53153 30.5827 9.49494 30.6646 9.45835C30.8737 9.36687 31.092 9.32114 31.3375 9.2937C31.4012 9.2937 31.5012 9.2937 31.6376 9.2937C31.7922 9.30284 31.9013 9.2937 31.9741 9.2937C32.0468 9.2937 32.1105 9.2754 32.1651 9.26625C32.1651 9.19307 32.1742 9.1199 32.1923 9.04672C31.9923 9.01928 31.8013 8.98269 31.6558 8.90951C31.774 8.86377 31.9286 8.85462 32.1196 8.87292C32.1469 8.87292 32.1832 8.88206 32.2196 8.88206C32.2196 8.86377 32.2287 8.84547 32.2287 8.82718C32.1287 8.80889 32.0287 8.79059 31.9195 8.78144L32.1378 8.68997C32.1923 8.67168 32.2287 8.66253 32.2742 8.64423C32.2833 8.62594 32.2833 8.60765 32.2924 8.58935C32.1651 8.54361 32.0287 8.49788 31.8741 8.41555L31.3921 8.15943C31.2011 8.06795 31.0374 7.99477 30.8919 7.95818C30.71 7.9033 30.5373 7.885 30.3645 7.9033L30.6555 7.87586L30.9556 7.85756C31.1738 7.85756 31.4103 7.9033 31.6467 7.98563C31.7013 8.00392 31.7831 8.04051 31.9195 8.10454C32.0559 8.16857 32.156 8.20516 32.2196 8.2326C32.3015 8.26005 32.3651 8.27834 32.4197 8.27834C32.4561 8.21431 32.4924 8.15028 32.5288 8.09539C32.3469 7.98563 32.2014 7.86671 32.0832 7.73865C32.2196 7.75694 32.3651 7.80268 32.5288 7.89415C32.5561 7.91245 32.5925 7.93074 32.6288 7.95818C32.6379 7.93989 32.647 7.93074 32.6561 7.91245C32.5743 7.85756 32.4833 7.80268 32.3742 7.74779L32.6107 7.76609C32.6652 7.76609 32.7198 7.77524 32.7653 7.78438C32.7743 7.77524 32.7925 7.75694 32.8016 7.74779C32.7016 7.65632 32.6016 7.54655 32.4924 7.41849L32.1469 6.99771C32.0105 6.83306 31.8831 6.705 31.7649 6.61352C31.6194 6.48546 31.4648 6.40314 31.292 6.3391L31.5921 6.43058C31.6922 6.46717 31.7922 6.50376 31.8741 6.54035C32.0741 6.63182 32.2651 6.75988 32.447 6.92453C32.4924 6.96112 32.5561 7.0343 32.6561 7.14407C32.7562 7.25384 32.8289 7.33616 32.8744 7.3819C32.938 7.44593 32.9926 7.48252 33.0472 7.51911C33.1017 7.47337 33.1563 7.43679 33.2199 7.39105C33.0926 7.21725 33.0017 7.0526 32.9562 6.88795C33.0654 6.94283 33.1745 7.0526 33.3018 7.19895C33.32 7.2264 33.3473 7.26299 33.3745 7.29958C33.3927 7.29043 33.4018 7.28128 33.42 7.27213C33.3655 7.18981 33.3018 7.09833 33.229 7.00686L33.4473 7.10748C33.5019 7.13492 33.5473 7.16237 33.5837 7.18981C33.6019 7.18066 33.611 7.18066 33.6292 7.17151C33.5746 7.04345 33.5291 6.90624 33.4746 6.73244L33.3382 6.20189C33.2836 6.00065 33.2199 5.836 33.1563 5.70794C33.0654 5.53414 32.9562 5.39693 32.8289 5.26887L33.0563 5.47011C33.1381 5.54329 33.2109 5.61647 33.2745 5.6805C33.4109 5.84515 33.5382 6.03724 33.6292 6.26593C33.6474 6.32081 33.6837 6.41228 33.7292 6.54949C33.7747 6.6867 33.811 6.79647 33.8292 6.8605C33.8656 6.95198 33.902 7.01601 33.9384 7.06174C34.002 7.04345 34.0748 7.02516 34.1384 7.01601C34.1021 6.80562 34.0748 6.60438 34.093 6.43058C34.1657 6.5312 34.2294 6.66841 34.2748 6.85136C34.2839 6.88795 34.293 6.94283 34.3021 6.98857C34.3203 6.98857 34.3385 6.98857 34.3567 6.98857C34.3476 6.8788 34.3203 6.76903 34.293 6.65011L34.4476 6.83306C34.4931 6.8788 34.5204 6.93368 34.5476 6.97942C34.5567 6.97942 34.5749 6.97942 34.584 6.97942C34.584 6.84221 34.5931 6.6867 34.6295 6.50376L34.7204 5.97321C34.7568 5.76282 34.775 5.58902 34.7659 5.44267C34.7568 5.25972 34.7113 5.08592 34.6568 4.93042L34.775 5.18654C34.8205 5.28716 34.8568 5.38778 34.875 5.46096C34.9387 5.6622 34.9751 5.89089 34.966 6.13786C34.966 6.19275 34.9569 6.29337 34.9387 6.43058C34.9205 6.58608 34.9114 6.69585 34.9114 6.75988C34.9023 6.86965 34.9114 6.94283 34.9296 7.00686C34.9932 7.01601 35.066 7.0343 35.1297 7.0526C35.1751 6.83306 35.2388 6.64097 35.3388 6.48546C35.3661 6.61353 35.3661 6.75988 35.3297 6.94283C35.3206 6.98857 35.3115 7.04345 35.2934 7.09833C35.3115 7.10748 35.3206 7.10748 35.3388 7.11663C35.3752 7.00686 35.4025 6.88795 35.4207 6.75988L35.4934 6.98857C35.5116 7.06175 35.5207 7.12578 35.5207 7.18981C35.5298 7.18981 35.5389 7.19895 35.548 7.19895C35.6025 7.07089 35.6844 6.91539 35.7935 6.75988L36.0936 6.30252C36.2027 6.12872 36.2937 5.97321 36.3482 5.836C36.421 5.65305 36.4574 5.47926 36.4574 5.30546V5.61647C36.4574 5.72623 36.4483 5.81771 36.4392 5.90918C36.4119 6.12872 36.3482 6.34825 36.2391 6.56779C36.2209 6.61352 36.1664 6.69585 36.0936 6.82391C36.0209 6.95198 35.9572 7.04345 35.9299 7.10748C35.8844 7.21725 35.8481 7.29958 35.839 7.36361C35.8935 7.4002 35.939 7.43679 35.9936 7.47337C36.13 7.28128 36.2755 7.12578 36.4301 7.01601C36.4028 7.14407 36.33 7.28128 36.23 7.43679C36.2027 7.47337 36.1664 7.52826 36.1209 7.574C36.13 7.58314 36.1482 7.59229 36.1573 7.60144C36.2391 7.50996 36.321 7.40934 36.3937 7.29043L36.3664 7.52826C36.3573 7.61973 36.3301 7.69291 36.3028 7.74779L36.3119 7.75694C36.421 7.65632 36.5574 7.54655 36.7302 7.43679L37.194 7.14407C37.3667 7.02516 37.5122 6.91539 37.6123 6.81477C37.7487 6.6867 37.8578 6.54035 37.9306 6.37569L37.8033 6.65011C37.7578 6.75988 37.7123 6.84221 37.6668 6.91539C37.5577 7.10748 37.4031 7.28128 37.2212 7.43679C37.1758 7.47337 37.0939 7.52826 36.9757 7.61973C36.8484 7.70206 36.7575 7.76609 36.7029 7.81183C36.612 7.89415 36.5574 7.95818 36.521 8.02222V8.03136C36.5483 8.0771 36.5847 8.13198 36.612 8.17772C36.8211 8.0588 37.0212 7.97648 37.2122 7.93074C37.1394 8.04051 37.0212 8.13198 36.8484 8.24175C36.8029 8.26919 36.7484 8.29663 36.6847 8.33322C36.6938 8.35152 36.7029 8.36067 36.7029 8.37896C36.8211 8.33323 36.9302 8.26919 37.0576 8.19601L36.9302 8.39726C36.8757 8.47958 36.8302 8.53447 36.7756 8.5802V8.58935C36.9121 8.54361 37.0848 8.49788 37.294 8.46129L37.8396 8.37896C38.0488 8.34237 38.2216 8.30578 38.3671 8.2509C38.549 8.18687 38.7126 8.09539 38.84 7.97648L38.6126 8.17772L38.3762 8.36981C38.1943 8.49788 37.9942 8.58935 37.7487 8.66253L37.4486 8.72656C37.3031 8.74485 37.1849 8.7723 37.1212 8.79059C37.003 8.81803 36.9121 8.85462 36.8575 8.90036C36.8575 8.90036 36.8575 8.90951 36.8484 8.90951C36.8575 8.97354 36.8666 9.02842 36.8757 9.09245C37.1121 9.06501 37.3395 9.06501 37.5122 9.1016C37.4031 9.17478 37.2485 9.22052 37.0576 9.23881L36.8757 9.24796C36.8757 9.26625 36.8757 9.28455 36.8757 9.30284C36.9939 9.30284 37.1212 9.29369 37.2576 9.26625L37.0667 9.40346C36.9939 9.4492 36.9302 9.47664 36.8666 9.49494C36.8666 9.50408 36.8666 9.51323 36.8666 9.51323C37.0121 9.52238 37.1849 9.55897 37.3758 9.6047L37.9124 9.75106C38.1215 9.80595 38.2943 9.84254 38.4489 9.84254C38.6399 9.86083 38.8218 9.83339 38.9945 9.78765L38.6672 9.90657ZM35.6571 17.7001C35.6571 17.5354 35.7935 17.3982 36.1573 17.3982C36.3937 17.3982 36.6392 17.4623 36.8848 17.6086L37.0757 17.1421C36.8302 16.9866 36.4937 16.9043 36.1573 16.9043C35.4116 16.9043 35.0478 17.2793 35.0478 17.7275C35.0478 18.7155 36.5847 18.3679 36.5847 18.871C36.5847 19.0356 36.4392 19.1545 36.0754 19.1545C35.7571 19.1545 35.4298 19.0448 35.2024 18.8801L34.9932 19.3466C35.2297 19.5296 35.648 19.6576 36.0663 19.6576C36.8211 19.6576 37.1849 19.2826 37.1849 18.8344C37.194 17.8465 35.6571 18.1849 35.6571 17.7001ZM32.8653 17.5354C32.2469 17.5354 31.7831 17.9745 31.7831 18.5874C31.7831 19.1911 32.2378 19.6393 32.938 19.6393C33.3018 19.6393 33.5837 19.5296 33.7747 19.31L33.4655 18.9716C33.3291 19.0996 33.1745 19.1728 32.9562 19.1728C32.647 19.1728 32.4288 19.0173 32.3742 18.7612H33.9111C33.9111 18.7155 33.9202 18.6514 33.9202 18.6057C33.9202 17.9288 33.4564 17.5354 32.8653 17.5354ZM32.3651 18.4044C32.4106 18.1392 32.6016 17.9837 32.8653 17.9837C33.129 17.9837 33.32 18.1483 33.3654 18.4044H32.3651ZM37.4577 19.6027H38.0488V17.5629H37.4577V19.6027ZM44.8237 19.6027H45.4148V16.7945H44.8237V19.6027ZM30.9101 17.7733C30.7646 17.6086 30.5554 17.5263 30.3008 17.5263C29.7279 17.5263 29.2914 17.9379 29.2914 18.5782C29.2914 19.2186 29.7279 19.6302 30.3008 19.6302C30.5736 19.6302 30.7828 19.5387 30.9374 19.3649V19.6027H31.5012V16.7945H30.9101V17.7733ZM30.4008 19.1454C30.1098 19.1454 29.8825 18.935 29.8825 18.5782C29.8825 18.2215 30.1098 18.0111 30.4008 18.0111C30.6919 18.0111 30.9192 18.2215 30.9192 18.5782C30.9192 18.935 30.6919 19.1454 30.4008 19.1454ZM41.0861 17.5354C40.7769 17.5354 40.5132 17.6635 40.3586 17.8647C40.2131 17.6452 39.9767 17.5354 39.6948 17.5354C39.4311 17.5354 39.2128 17.6269 39.0582 17.8007V17.5629H38.4944V19.6027H39.0855V18.5782C39.0855 18.2123 39.2674 18.0477 39.5311 18.0477C39.7766 18.0477 39.913 18.2032 39.913 18.5325V19.6119H40.5041V18.5782C40.5041 18.2123 40.686 18.0477 40.9497 18.0477C41.1862 18.0477 41.3317 18.2032 41.3317 18.5325V19.6119H41.9228V18.441C41.9137 17.8099 41.5681 17.5354 41.0861 17.5354ZM37.7578 16.6207C37.5395 16.6207 37.394 16.7671 37.394 16.95C37.394 17.133 37.5395 17.2793 37.7578 17.2793C37.976 17.2793 38.1215 17.133 38.1215 16.9409C38.1215 16.7579 37.976 16.6207 37.7578 16.6207ZM43.5324 17.5354C43.2596 17.5354 43.0413 17.6269 42.8958 17.8007V17.5629H42.332V20.3345H42.9231V19.3832C43.0777 19.5479 43.2778 19.6302 43.5324 19.6302C44.1053 19.6302 44.5418 19.2186 44.5418 18.5782C44.5418 17.9379 44.1053 17.5354 43.5324 17.5354ZM43.4324 19.1454C43.1413 19.1454 42.914 18.935 42.914 18.5782C42.914 18.2215 43.1323 18.0111 43.4324 18.0111C43.7234 18.0111 43.9507 18.2215 43.9507 18.5782C43.9507 18.935 43.7234 19.1454 43.4324 19.1454ZM26.2086 16.95L25.2355 18.5965L24.2534 16.95H23.7532V19.6027H24.3262V18.0477L25.0991 19.3283H25.3719L26.1449 18.0203V19.6119H26.7178L26.7087 16.9592H26.2086V16.95ZM18.0514 17.5354C17.7786 17.5354 17.5421 17.6269 17.3784 17.8007V17.5629H16.8146V19.6027H17.4057V18.5965C17.4057 18.2215 17.6058 18.0477 17.8877 18.0477C18.1514 18.0477 18.2969 18.2032 18.2969 18.5325V19.6119H18.888V18.441C18.888 17.8099 18.5243 17.5354 18.0514 17.5354ZM20.2248 19.1637C20.0702 19.1637 19.9702 19.0722 19.9702 18.8984V18.066H20.4704V17.6086H19.9702V17.1147H19.3791V17.6086H19.0699V18.066H19.3791V18.9075C19.3791 19.3924 19.661 19.6393 20.1339 19.6393C20.3158 19.6393 20.4885 19.5936 20.6159 19.5113L20.4613 19.0905C20.3976 19.1362 20.3158 19.1637 20.2248 19.1637ZM15.4142 17.5354C15.0868 17.5354 14.7594 17.6269 14.5412 17.7824L14.7503 18.1941C14.8958 18.0751 15.1232 18.002 15.3323 18.002C15.6506 18.002 15.7961 18.1483 15.7961 18.4044H15.3323C14.7139 18.4044 14.4593 18.6514 14.4593 19.0173C14.4593 19.3741 14.7412 19.6302 15.2141 19.6302C15.5142 19.6302 15.7234 19.5296 15.8325 19.3466V19.6027H16.3781V18.441C16.3963 17.819 16.0325 17.5354 15.4142 17.5354ZM15.8052 18.9533C15.7415 19.1362 15.5688 19.2277 15.3687 19.2277C15.1595 19.2277 15.0413 19.1271 15.0413 18.9807C15.0413 18.8435 15.1323 18.7429 15.4051 18.7429H15.8052V18.9533ZM46.788 17.5354C46.1696 17.5354 45.7058 17.9745 45.7058 18.5874C45.7058 19.1911 46.1605 19.6393 46.8607 19.6393C47.2245 19.6393 47.5064 19.5296 47.6974 19.31L47.3882 18.9716C47.2518 19.0996 47.0972 19.1728 46.8789 19.1728C46.5697 19.1728 46.3515 19.0173 46.2969 18.7612H47.8338C47.8338 18.7155 47.8429 18.6514 47.8429 18.6057C47.8429 17.9288 47.3791 17.5354 46.788 17.5354ZM46.2878 18.4044C46.3333 18.1392 46.5243 17.9837 46.788 17.9837C47.0517 17.9837 47.2427 18.1483 47.2882 18.4044H46.2878ZM21.2615 18.1666C21.2615 18.0568 21.3706 17.9745 21.6344 17.9745C21.8162 17.9745 22.0163 18.0111 22.2164 18.13L22.4164 17.7092C22.2255 17.5995 21.9163 17.5354 21.6344 17.5354C21.0433 17.5354 20.6977 17.8099 20.6977 18.1941C20.6977 19.0082 21.9254 18.6697 21.9254 18.999C21.9254 19.1088 21.8253 19.182 21.5525 19.182C21.307 19.182 21.0251 19.0996 20.8523 18.9807L20.6522 19.4015C20.8432 19.5296 21.1888 19.621 21.5252 19.621C22.1345 19.621 22.4801 19.3558 22.4801 18.9716C22.4892 18.1758 21.2615 18.5142 21.2615 18.1666ZM28.0092 17.5354C27.6818 17.5354 27.3544 17.6269 27.1362 17.7824L27.3453 18.1941C27.4908 18.0751 27.7182 18.002 27.9273 18.002C28.2456 18.002 28.3911 18.1483 28.3911 18.4044H27.9273C27.3089 18.4044 27.0543 18.6514 27.0543 19.0173C27.0543 19.3741 27.3362 19.6302 27.8091 19.6302C28.1092 19.6302 28.3184 19.5296 28.4275 19.3466V19.6027H28.9731V18.441C28.9822 17.819 28.6275 17.5354 28.0092 17.5354ZM28.4002 18.9533C28.3365 19.1362 28.1638 19.2277 27.9637 19.2277C27.7545 19.2277 27.6363 19.1271 27.6363 18.9807C27.6363 18.8435 27.7273 18.7429 28.0001 18.7429H28.4002V18.9533ZM46.8062 8.95524C46.4333 8.72656 46.1059 8.56191 45.8422 8.45214C45.5694 8.34237 45.1238 8.19601 44.4872 7.99477C43.8507 7.79353 43.396 7.61973 43.1232 7.46423C42.8503 7.31787 42.7139 7.10748 42.7139 6.84221C42.7139 6.36655 43.1504 6.12872 44.0144 6.12872C44.8783 6.12872 45.7513 6.43058 46.6243 7.0343L47.6701 5.14995C46.4879 4.34499 45.2966 3.9425 44.1144 3.9425C42.9231 3.9425 41.9591 4.23522 41.2135 4.82979C40.4678 5.42437 40.0858 6.1836 40.0858 7.11663C40.0858 8.04966 40.4678 8.76315 41.2316 9.23881C41.6045 9.47664 41.941 9.65959 42.232 9.78765C42.523 9.91571 42.9504 10.0621 43.5051 10.2359C44.0598 10.4097 44.4872 10.6018 44.7782 10.803C45.0693 11.0042 45.2148 11.2238 45.2148 11.4616C45.2148 11.6994 45.1056 11.8915 44.8965 12.0379C44.6873 12.1843 44.3963 12.2574 44.0326 12.2574C42.8413 12.2574 41.7318 11.8458 40.6769 11.0317L39.4402 12.8063C40.0858 13.3368 40.8224 13.7302 41.6318 14.0046C42.4411 14.279 43.2232 14.4071 43.978 14.4071C45.1056 14.4071 46.0332 14.1052 46.7607 13.5015C47.4882 12.8977 47.8611 12.0928 47.8611 11.0957C47.8611 10.0987 47.5064 9.38517 46.8062 8.95524Z" fill="#F1F3F4"/>
</svg>
