<svg width="40" height="41" viewBox="0 0 40 41" fill="none" xmlns="http://www.w3.org/2000/svg">
<path fill-rule="evenodd" clip-rule="evenodd" d="M36.1227 15.6224C36.4043 14.8262 37.1556 14.2926 38 14.2891C39.1045 14.2891 40 15.1846 40 16.2891V24.2891C40.0019 25.262 39.3018 26.0944 38.3428 26.2594C37.3838 26.4241 36.446 25.8734 36.1227 24.9557H33.1833C31.7669 28.9294 28.6403 32.056 24.6667 33.4723V36.4118C25.5843 36.735 26.1351 37.6728 25.9704 38.6318C25.8053 39.5908 24.973 40.291 24 40.2891H16C15.027 40.291 14.1947 39.5908 14.0296 38.6318C13.8649 37.6728 14.4157 36.735 15.3333 36.4118V33.4723C11.3597 32.056 8.23307 28.9294 6.81673 24.9557H3.87728C3.55404 25.8734 2.61621 26.4241 1.65723 26.2594C0.698246 26.0944 -0.00194905 25.262 4.07586e-06 24.2891V16.2891C-0.00194905 15.3161 0.698246 14.4837 1.65723 14.3187C2.61621 14.154 3.55404 14.7048 3.87728 15.6224H6.81673C8.23307 11.6488 11.3597 8.52214 15.3333 7.1058V4.16634C14.4157 3.8431 13.8649 2.90528 14.0296 1.94629C14.1947 0.987308 15.027 0.287113 16 0.289067H24C24.973 0.287113 25.8053 0.987308 25.9704 1.94629C26.1351 2.90528 25.5843 3.8431 24.6667 4.16634V7.1058C28.6403 8.52214 31.7669 11.6488 33.1833 15.6224H36.1227ZM24.0026 1.625H16.0026C15.6344 1.625 15.3359 1.9235 15.3359 2.29166C15.3359 2.65983 15.6344 2.95833 16.0026 2.95833H24.0026C24.3708 2.95833 24.6693 2.65983 24.6693 2.29166C24.6693 1.9235 24.3708 1.625 24.0026 1.625ZM16.6719 4.28906H23.3385V6.70703C21.1514 6.14973 18.859 6.14973 16.6719 6.70703V4.28906ZM1.33593 24.2917C1.33593 24.6598 1.63444 24.9583 2.0026 24.9583C2.37076 24.9583 2.66927 24.6598 2.66927 24.2917V16.2917C2.66927 15.9235 2.37076 15.625 2.0026 15.625C1.63444 15.625 1.33593 15.9235 1.33593 16.2917V24.2917ZM4 23.6198V16.9531H6.41796C5.86067 19.1403 5.86067 21.4326 6.41796 23.6198H4ZM15.3359 38.2917C15.3359 38.6598 15.6344 38.9583 16.0026 38.9583H24.0026C24.3708 38.9583 24.6693 38.6598 24.6693 38.2917C24.6693 37.9235 24.3708 37.625 24.0026 37.625H16.0026C15.6344 37.625 15.3359 37.9235 15.3359 38.2917ZM23.3307 36.293H16.6641V33.875C18.8512 34.4323 21.1435 34.4323 23.3307 33.875V36.293ZM7.33593 20.2917C7.33593 27.2874 13.0072 32.9583 20.0026 32.9583C26.9951 32.9505 32.6614 27.2842 32.6693 20.2917C32.6693 13.2962 26.9984 7.625 20.0026 7.625C13.0072 7.625 7.33593 13.2962 7.33593 20.2917ZM33.5781 16.9531H35.9961V23.6198H33.5781C34.1354 21.4326 34.1354 19.1403 33.5781 16.9531ZM38.0026 24.9583C38.3708 24.9583 38.6693 24.6598 38.6693 24.2917V16.2917C38.6693 15.9235 38.3708 15.625 38.0026 15.625C37.6344 15.625 37.3359 15.9235 37.3359 16.2917V24.2917C37.3359 24.6598 37.6344 24.9583 38.0026 24.9583Z" fill="white"/>
<path fill-rule="evenodd" clip-rule="evenodd" d="M11 19.9557C11 15.1693 14.8802 11.2891 19.6667 11.2891C24.4508 11.2946 28.3278 15.1715 28.3333 19.9557C28.3333 24.7422 24.4531 28.6224 19.6667 28.6224C14.8802 28.6224 11 24.7422 11 19.9557ZM12.3359 19.9583C12.3359 24.0085 15.6191 27.2917 19.6693 27.2917C23.7174 27.2868 26.9977 24.0065 27.0026 19.9583C27.0026 15.9082 23.7194 12.625 19.6693 12.625C15.6191 12.625 12.3359 15.9082 12.3359 19.9583Z" fill="white"/>
</svg>
