<svg width="40" height="37" viewBox="0 0 40 37" fill="none" xmlns="http://www.w3.org/2000/svg">
<path fill-rule="evenodd" clip-rule="evenodd" d="M33.5331 13.7155V10.2704L38.046 10.2709L38.1161 9.10481L38.1163 9.0988C38.1294 8.83083 38.3504 4.29817 36.0289 1.84781C35.0623 0.828001 33.7689 0.289062 32.2887 0.289062H4.61334C2.0685 0.289062 0 2.3496 0 4.88168V28.4855C0 29.3218 0.429609 30.0768 1.14867 30.5065C1.86774 30.9363 2.74088 30.9595 3.48098 30.5646L5.0662 29.6633L7.88884 31.1593C8.23908 31.3451 8.6196 31.4381 9.00482 31.4381C9.38769 31.4381 9.76827 31.3451 10.1185 31.1616L12.8291 29.6633L15.6517 31.1616C16.3474 31.531 17.1832 31.531 17.8813 31.1593L16.8214 28.9733L13.9988 27.4773C13.303 27.108 12.4695 27.108 11.7715 27.4773L9.06088 28.9733L6.23824 27.4796C5.54249 27.108 4.7067 27.108 4.00861 27.4773L2.48872 28.2834V4.88117C2.48872 3.71505 3.4413 2.76723 4.61328 2.76723H31.0443V13.7155H33.5331ZM23.4297 29.6542H30.4709V36.6579H32.9597V29.6542H40.0009V27.1755H32.9597V20.1719H30.4709V27.1755H23.4297V29.6542ZM33.5312 7.79427V3.03906C33.7834 3.16218 34.0075 3.33176 34.213 3.54548C35.1888 4.57691 35.525 6.45851 35.6138 7.79424L33.5312 7.79427ZM25.9703 10.6818H7.55469V8.20312H25.9703V10.6818ZM7.55469 16.1974H25.9703V13.7188H7.55469V16.1974ZM20.547 21.713H7.55469V19.2344H20.547V21.713Z" fill="white"/>
</svg>
