<svg width="50" height="79" viewBox="0 0 50 79" fill="none" xmlns="http://www.w3.org/2000/svg">
<mask id="mask0_7758_48" style="mask-type:luminance" maskUnits="userSpaceOnUse" x="5" y="0" width="40" height="41">
<path fill-rule="evenodd" clip-rule="evenodd" d="M5 0.734375H45V40.7344H5V0.734375Z" fill="white"/>
</mask>
<g mask="url(#mask0_7758_48)">
<path fill-rule="evenodd" clip-rule="evenodd" d="M38.3169 19.3473C38.1414 18.3961 37.3854 17.7007 36.4809 17.538C35.6169 14.8045 34.2467 12.7117 32.3641 11.2662C30.5004 9.835 28.2061 9.16732 25.4784 9.27466C25.2624 8.09321 24.2296 7.19531 22.9876 7.19531C21.5836 7.19531 20.4496 8.33018 20.4496 9.72698C20.4496 9.89576 20.4705 10.0578 20.4975 10.2198C19.1205 10.7126 17.8914 11.4013 16.812 12.2857C15.1306 13.6561 13.9433 15.3648 13.2473 17.4172C12.7478 18.9024 12.5453 20.4883 12.6466 22.17C11.9108 22.6621 11.5058 23.5668 11.6813 24.4849C11.8643 25.3896 12.5521 26.0647 13.3958 26.2672C13.356 26.1255 13.3216 25.9837 13.2953 25.8352C13.3351 25.9837 13.383 26.1255 13.4296 26.2747C13.8413 27.5027 14.4083 28.6031 15.1171 29.5962C15.1576 29.657 15.2048 29.7171 15.2521 29.7846C15.2993 29.846 15.3466 29.9 15.3871 29.9533C15.4546 30.0485 15.5288 30.1424 15.6038 30.2301C16.9666 31.8842 18.6879 33.0325 20.7669 33.6935C22.8391 34.3551 25.1341 34.4496 27.6586 33.9844C29.7984 33.5861 31.6682 32.8638 33.2686 31.8099C34.8474 30.7777 36.1164 29.4882 37.0749 27.9213C37.1019 27.8814 37.0891 27.8274 37.0479 27.8004L32.9102 24.917C32.8703 24.89 32.8089 24.8974 32.7819 24.944C32.1143 25.8892 31.3172 26.673 30.3789 27.2799C29.4204 27.9017 28.3748 28.3196 27.2476 28.5295C25.7018 28.8192 24.2971 28.6376 23.0416 27.9962C22.5691 27.7592 22.1439 27.4561 21.7524 27.0976C21.6788 27.0375 21.5904 26.9565 21.5026 26.862C21.4621 26.8148 21.4216 26.7601 21.3744 26.7061C20.9498 26.2672 20.5914 25.7339 20.2944 25.133C20.2674 25.0858 20.2471 25.0392 20.2201 24.9913C20.2471 25.0325 20.2748 25.079 20.3079 25.133L36.5214 22.0073C37.7567 21.7717 38.5539 20.5828 38.3169 19.3473ZM45 20.738C45 31.7828 36.0501 40.7348 25.0003 40.7348C13.9566 40.7348 5 31.7828 5 20.738C5 9.68569 13.9566 0.734375 25.0003 0.734375C36.0501 0.734375 45 9.68569 45 20.738ZM30.1438 18.6171L19.2756 20.7032C19.2688 19.1093 19.6671 17.7658 20.4636 16.6721C21.2878 15.5521 22.4346 14.8567 23.9196 14.5793C25.4924 14.2897 26.8424 14.532 27.9771 15.3023C29.0564 16.0443 29.7793 17.1515 30.1438 18.6171Z" fill="white"/>
</g>
<path d="M5.7631 59.7344L1.7851 50.6344H3.6181L7.1671 58.8634H6.1141L9.7021 50.6344H11.3921L7.4271 59.7344H5.7631ZM14.9389 59.8254C14.1675 59.8254 13.4915 59.6737 12.9109 59.3704C12.3389 59.0584 11.8925 58.6337 11.5719 58.0964C11.2599 57.559 11.1039 56.948 11.1039 56.2634C11.1039 55.57 11.2555 54.959 11.5589 54.4304C11.8709 53.893 12.2955 53.4727 12.8329 53.1694C13.3789 52.866 13.9985 52.7144 14.6919 52.7144C15.3679 52.7144 15.9702 52.8617 16.4989 53.1564C17.0275 53.451 17.4435 53.867 17.7469 54.4044C18.0502 54.9417 18.2019 55.5744 18.2019 56.3024C18.2019 56.3717 18.1975 56.4497 18.1889 56.5364C18.1889 56.623 18.1845 56.7054 18.1759 56.7834H12.3909V55.7044H17.3179L16.6809 56.0424C16.6895 55.6437 16.6072 55.2927 16.4339 54.9894C16.2605 54.686 16.0222 54.4477 15.7189 54.2744C15.4242 54.101 15.0819 54.0144 14.6919 54.0144C14.2932 54.0144 13.9422 54.101 13.6389 54.2744C13.3442 54.4477 13.1102 54.6904 12.9369 55.0024C12.7722 55.3057 12.6899 55.6654 12.6899 56.0814V56.3414C12.6899 56.7574 12.7852 57.1257 12.9759 57.4464C13.1665 57.767 13.4352 58.014 13.7819 58.1874C14.1285 58.3607 14.5272 58.4474 14.9779 58.4474C15.3679 58.4474 15.7189 58.3867 16.0309 58.2654C16.3429 58.144 16.6202 57.9534 16.8629 57.6934L17.7339 58.6944C17.4219 59.0584 17.0275 59.34 16.5509 59.5394C16.0829 59.73 15.5455 59.8254 14.9389 59.8254ZM19.7628 59.7344V52.7924H21.3098V54.7034L21.1278 54.1444C21.3358 53.6764 21.6608 53.321 22.1028 53.0784C22.5534 52.8357 23.1124 52.7144 23.7798 52.7144V54.2614C23.7104 54.244 23.6454 54.2354 23.5848 54.2354C23.5241 54.2267 23.4634 54.2224 23.4028 54.2224C22.7874 54.2224 22.2978 54.4044 21.9338 54.7684C21.5698 55.1237 21.3878 55.6567 21.3878 56.3674V59.7344H19.7628ZM28.1905 57.6674V56.4974L32.6755 50.6344H34.4825L30.0625 56.4974L29.2175 56.2374H36.4325V57.6674H28.1905ZM33.1825 59.7344V57.6674L33.2345 56.2374V54.4044H34.8205V59.7344H33.1825ZM38.4117 59.8254C38.117 59.8254 37.8657 59.7257 37.6577 59.5264C37.4497 59.3184 37.3457 59.0584 37.3457 58.7464C37.3457 58.417 37.4497 58.157 37.6577 57.9664C37.8657 57.767 38.117 57.6674 38.4117 57.6674C38.7064 57.6674 38.9577 57.767 39.1657 57.9664C39.3737 58.157 39.4777 58.417 39.4777 58.7464C39.4777 59.0584 39.3737 59.3184 39.1657 59.5264C38.9577 59.7257 38.7064 59.8254 38.4117 59.8254ZM43.6395 50.5044C44.4715 50.5044 45.1778 50.682 45.7585 51.0374C46.3478 51.384 46.7985 51.891 47.1105 52.5584C47.4225 53.2257 47.5785 54.049 47.5785 55.0284C47.5785 56.0684 47.3878 56.948 47.0065 57.6674C46.6338 58.3867 46.1138 58.9327 45.4465 59.3054C44.7792 59.678 44.0035 59.8644 43.1195 59.8644C42.6602 59.8644 42.2225 59.8167 41.8065 59.7214C41.3905 59.626 41.0308 59.4787 40.7275 59.2794L41.3515 58.0054C41.6028 58.17 41.8758 58.287 42.1705 58.3564C42.4652 58.417 42.7685 58.4474 43.0805 58.4474C43.9385 58.4474 44.6188 58.183 45.1215 57.6544C45.6242 57.1257 45.8755 56.3457 45.8755 55.3144C45.8755 55.1497 45.8712 54.959 45.8625 54.7424C45.8538 54.517 45.8235 54.2917 45.7715 54.0664L46.2915 54.6384C46.1442 54.9937 45.9318 55.2927 45.6545 55.5354C45.3772 55.7694 45.0522 55.947 44.6795 56.0684C44.3068 56.1897 43.8952 56.2504 43.4445 56.2504C42.8552 56.2504 42.3222 56.1377 41.8455 55.9124C41.3775 55.6784 41.0048 55.3534 40.7275 54.9374C40.4502 54.5127 40.3115 54.0187 40.3115 53.4554C40.3115 52.8487 40.4588 52.3287 40.7535 51.8954C41.0482 51.4534 41.4468 51.111 41.9495 50.8684C42.4608 50.6257 43.0242 50.5044 43.6395 50.5044ZM43.7305 51.8304C43.3838 51.8304 43.0762 51.8954 42.8075 52.0254C42.5388 52.1467 42.3265 52.3244 42.1705 52.5584C42.0232 52.7837 41.9495 53.0567 41.9495 53.3774C41.9495 53.854 42.1142 54.231 42.4435 54.5084C42.7728 54.7857 43.2148 54.9244 43.7695 54.9244C44.1335 54.9244 44.4542 54.8594 44.7315 54.7294C45.0088 54.5907 45.2255 54.4044 45.3815 54.1704C45.5375 53.9277 45.6155 53.659 45.6155 53.3644C45.6155 53.0784 45.5418 52.8227 45.3945 52.5974C45.2472 52.3634 45.0348 52.177 44.7575 52.0384C44.4802 51.8997 44.1378 51.8304 43.7305 51.8304ZM3.14009 70.8204H7.67709V72.2504H3.14009V70.8204ZM3.28309 75.7344H1.59309V66.6344H8.23609V68.0514H3.28309V75.7344ZM9.87044 75.7344V66.6344H11.5604V74.3044H16.3184V75.7344H9.87044ZM23.4554 75.8644C22.8141 75.8644 22.1858 75.7734 21.5704 75.5914C20.9638 75.4007 20.4524 75.1407 20.0364 74.8114L20.7644 73.4984C21.0938 73.767 21.4924 73.9837 21.9604 74.1484C22.4284 74.313 22.9181 74.3954 23.4294 74.3954C24.0361 74.3954 24.5084 74.274 24.8464 74.0314C25.1844 73.78 25.3534 73.442 25.3534 73.0174C25.3534 72.6014 25.1974 72.272 24.8854 72.0294C24.5734 71.7867 24.0708 71.6654 23.3774 71.6654H22.5454V70.5084L25.1454 67.4144L25.3664 68.0514H20.4784V66.6344H26.6794V67.7654L24.0794 70.8594L23.1954 70.3394H23.7024C24.8204 70.3394 25.6568 70.5907 26.2114 71.0934C26.7748 71.5874 27.0564 72.2244 27.0564 73.0044C27.0564 73.5157 26.9264 73.988 26.6664 74.4214C26.4064 74.8547 26.0078 75.2057 25.4704 75.4744C24.9418 75.7344 24.2701 75.8644 23.4554 75.8644ZM29.1758 75.8254C28.8812 75.8254 28.6298 75.7257 28.4218 75.5264C28.2138 75.3184 28.1098 75.0584 28.1098 74.7464C28.1098 74.417 28.2138 74.157 28.4218 73.9664C28.6298 73.767 28.8812 73.6674 29.1758 73.6674C29.4705 73.6674 29.7218 73.767 29.9298 73.9664C30.1378 74.157 30.2418 74.417 30.2418 74.7464C30.2418 75.0584 30.1378 75.3184 29.9298 75.5264C29.7218 75.7257 29.4705 75.8254 29.1758 75.8254ZM34.3226 75.8644C33.6813 75.8644 33.053 75.7734 32.4376 75.5914C31.831 75.4007 31.3196 75.1407 30.9036 74.8114L31.6316 73.4984C31.961 73.767 32.3596 73.9837 32.8276 74.1484C33.2956 74.313 33.7853 74.3954 34.2966 74.3954C34.9033 74.3954 35.3756 74.274 35.7136 74.0314C36.0516 73.78 36.2206 73.442 36.2206 73.0174C36.2206 72.6014 36.0646 72.272 35.7526 72.0294C35.4406 71.7867 34.938 71.6654 34.2446 71.6654H33.4126V70.5084L36.0126 67.4144L36.2336 68.0514H31.3456V66.6344H37.5466V67.7654L34.9466 70.8594L34.0626 70.3394H34.5696C35.6876 70.3394 36.524 70.5907 37.0786 71.0934C37.642 71.5874 37.9236 72.2244 37.9236 73.0044C37.9236 73.5157 37.7936 73.988 37.5336 74.4214C37.2736 74.8547 36.875 75.2057 36.3376 75.4744C35.809 75.7344 35.1373 75.8644 34.3226 75.8644ZM40.043 75.8254C39.7484 75.8254 39.497 75.7257 39.289 75.5264C39.081 75.3184 38.977 75.0584 38.977 74.7464C38.977 74.417 39.081 74.157 39.289 73.9664C39.497 73.767 39.7484 73.6674 40.043 73.6674C40.3377 73.6674 40.589 73.767 40.797 73.9664C41.005 74.157 41.109 74.417 41.109 74.7464C41.109 75.0584 41.005 75.3184 40.797 75.5264C40.589 75.7257 40.3377 75.8254 40.043 75.8254ZM45.9895 75.8644C45.1662 75.8644 44.4598 75.691 43.8705 75.3444C43.2812 74.989 42.8305 74.4777 42.5185 73.8104C42.2065 73.143 42.0505 72.3197 42.0505 71.3404C42.0505 70.3004 42.2368 69.4207 42.6095 68.7014C42.9908 67.982 43.5152 67.436 44.1825 67.0634C44.8585 66.6907 45.6342 66.5044 46.5095 66.5044C46.9688 66.5044 47.4065 66.552 47.8225 66.6474C48.2472 66.7427 48.6068 66.89 48.9015 67.0894L48.2775 68.3634C48.0262 68.1987 47.7532 68.086 47.4585 68.0254C47.1725 67.956 46.8692 67.9214 46.5485 67.9214C45.6905 67.9214 45.0102 68.1857 44.5075 68.7144C44.0048 69.243 43.7535 70.023 43.7535 71.0544C43.7535 71.219 43.7578 71.414 43.7665 71.6394C43.7752 71.856 43.8055 72.077 43.8575 72.3024L43.3375 71.7304C43.4935 71.375 43.7058 71.0804 43.9745 70.8464C44.2518 70.6037 44.5768 70.4217 44.9495 70.3004C45.3308 70.179 45.7425 70.1184 46.1845 70.1184C46.7825 70.1184 47.3155 70.2354 47.7835 70.4694C48.2515 70.6947 48.6242 71.0197 48.9015 71.4444C49.1788 71.8604 49.3175 72.35 49.3175 72.9134C49.3175 73.5114 49.1702 74.0314 48.8755 74.4734C48.5808 74.9154 48.1822 75.2577 47.6795 75.5004C47.1768 75.743 46.6135 75.8644 45.9895 75.8644ZM45.8985 74.5384C46.2452 74.5384 46.5528 74.4777 46.8215 74.3564C47.0902 74.2264 47.2982 74.0444 47.4455 73.8104C47.6015 73.5764 47.6795 73.3034 47.6795 72.9914C47.6795 72.5147 47.5148 72.1377 47.1855 71.8604C46.8562 71.583 46.4142 71.4444 45.8595 71.4444C45.4955 71.4444 45.1748 71.5137 44.8975 71.6524C44.6288 71.7824 44.4122 71.9644 44.2475 72.1984C44.0915 72.4324 44.0135 72.701 44.0135 73.0044C44.0135 73.2817 44.0872 73.5374 44.2345 73.7714C44.3818 74.0054 44.5942 74.1917 44.8715 74.3304C45.1575 74.469 45.4998 74.5384 45.8985 74.5384Z" fill="white"/>
</svg>
