<svg width="40" height="33" viewBox="0 0 40 33" fill="none" xmlns="http://www.w3.org/2000/svg">
<path fill-rule="evenodd" clip-rule="evenodd" d="M34.7299 0.289062V3.91221L40.0023 3.9126V28.6866H37.6266V6.27133H34.7299V28.6866H32.3542V2.64779H8.95312V0.289062H34.7299ZM20.6867 32.6904C21.0096 32.8584 21.3614 32.9446 21.7132 32.9446L21.7132 32.9441C22.0628 32.9441 22.4146 32.8579 22.7352 32.6899L25.1332 31.421L26.5381 32.1638C27.2172 32.5263 28.0232 32.5064 28.6845 32.1107C29.3458 31.7172 29.7399 31.0231 29.7399 30.256V5.36719H4.15918C1.86581 5.36719 0 7.2197 0 9.4966V30.2565C0 31.0236 0.396316 31.7177 1.05762 32.1112C1.71887 32.5047 2.52045 32.5268 3.20176 32.1665L4.60896 31.4215L7.00469 32.6904C7.64593 33.0286 8.41189 33.0286 9.05313 32.6904L11.4489 31.4215L13.8468 32.6904C14.4881 33.0286 15.254 33.0286 15.8953 32.6904L18.291 31.4215L20.6867 32.6904ZM11.4482 29.0288C11.8022 29.0288 12.154 29.115 12.4746 29.2852L14.8704 30.5519L17.2683 29.2852C17.9051 28.9425 18.6732 28.9448 19.3168 29.2852L21.7125 30.5519L24.1082 29.2852C24.7495 28.9448 25.5154 28.947 26.1567 29.2852L27.3657 29.924V7.71875H4.15845C3.1743 7.71875 2.375 8.51233 2.375 9.48944V29.924L3.58623 29.2851C4.22747 28.9447 4.99343 28.9469 5.63467 29.2851L8.02818 30.5518L10.4261 29.2851C10.7468 29.1149 11.0963 29.0287 11.4481 29.0287L11.4482 29.0288ZM14.5386 25.0754H15.6095V24.1026C17.9945 23.899 19.3389 22.7075 19.3389 20.7921C19.3389 19.1557 18.3667 18.1527 16.4223 17.7304L15.6095 17.572V14.7592C16.4223 14.8723 16.9995 15.4605 17.0223 16.1769H19.1338C19.1034 14.4425 17.7363 13.2058 15.6095 13.0172V11.9766H14.5386V13.0097C12.26 13.1907 10.9232 14.3822 10.9232 16.2297C10.9232 17.7983 11.903 18.8465 13.7335 19.2688L14.5386 19.4573V22.3983C13.574 22.2927 12.9208 21.7196 12.8676 20.9353H10.6953C10.7029 22.7829 12.1536 23.9744 14.5386 24.1101V25.0754ZM17.1892 21.0282C17.1892 20.2967 16.6879 19.8518 15.6094 19.6406V22.4007C16.6044 22.3403 17.1892 21.8275 17.1892 21.0282ZM14.5375 17.3517C13.6109 17.1556 13.1172 16.7031 13.1172 16.0395C13.1172 15.3231 13.7096 14.7952 14.5375 14.75V17.3517Z" fill="white"/>
</svg>
