<svg width="48" height="41" viewBox="0 0 48 41" fill="none" xmlns="http://www.w3.org/2000/svg">
<g clip-path="url(#clip0_7758_68)">
<path d="M24.0153 40.2891C18.6731 40.2891 13.6507 38.2089 9.87326 34.4314C6.09583 30.654 4.01562 25.6316 4.01562 20.2893C4.01562 14.9471 6.09583 9.9247 9.87326 6.14727C13.6507 2.36926 18.6731 0.289062 24.0153 0.289062C29.3576 0.289062 34.38 2.36926 38.1574 6.1467C41.9349 9.92413 44.0151 14.9465 44.0151 20.2888C44.0151 25.6311 41.9349 30.6534 38.1574 34.4309C34.38 38.2083 29.3576 40.2885 24.0153 40.2885V40.2891ZM24.0153 8.16326C17.3293 8.16326 11.8893 13.6027 11.8893 20.2893C11.8893 26.976 17.3287 32.4154 24.0153 32.4154C30.702 32.4154 36.1414 26.976 36.1414 20.2893C36.1414 13.6027 30.702 8.16326 24.0153 8.16326Z" fill="white"/>
<path d="M42.6011 19.8115C45.3406 19.8115 47.5615 17.5906 47.5615 14.8511C47.5615 12.1115 45.3406 9.89062 42.6011 9.89062C39.8615 9.89062 37.6406 12.1115 37.6406 14.8511C37.6406 17.5906 39.8615 19.8115 42.6011 19.8115Z" fill="white"/>
<path d="M4.96044 29.7412C7.70001 29.7412 9.92088 27.5203 9.92088 24.7808C9.92088 22.0412 7.70001 19.8203 4.96044 19.8203C2.22086 19.8203 0 22.0412 0 24.7808C0 27.5203 2.22086 29.7412 4.96044 29.7412Z" fill="white"/>
</g>
<defs>
<clipPath id="clip0_7758_68">
<rect width="47.5588" height="40" fill="white" transform="translate(0 0.289062)"/>
</clipPath>
</defs>
</svg>
